<svg height="480pt" viewBox="0 0 480 480" width="480pt" xmlns="http://www.w3.org/2000/svg"><path d="m272 72c0-2.675781-1.335938-5.171875-3.558594-6.65625l-48-32c-2.457031-1.636719-5.613281-1.789062-8.214844-.398438-2.601562 1.390626-4.226562 4.105469-4.226562 7.054688v64c0 2.949219 1.625 5.664062 4.226562 7.054688 2.601563 1.390624 5.757813 1.238281 8.214844-.398438l48-32c2.222656-1.484375 3.558594-3.980469 3.558594-6.65625zm-48 17.046875v-34.09375l25.601562 17.046875zm0 0"/><path d="m368 48h16v16h-16zm0 0"/><path d="m368 72h16v56h-16zm0 0"/><path d="m448 128v-28c0-15.464844-12.535156-28-28-28-4.160156.023438-8.261719.980469-12 2.808594v-2.808594h-16v56h16v-28c0-6.628906 5.371094-12 12-12s12 5.371094 12 12v28zm0 0"/><path d="m360 200h32c13.253906 0 24-10.746094 24-24v-16h32c17.671875 0 32-14.328125 32-32v-80c0-17.671875-14.328125-32-32-32h-80c-17.671875 0-32 14.328125-32 32v80c0 17.671875 14.328125 32 32 32h32v16c0 4.417969-3.582031 8-8 8h-32c-13.253906 0-24 10.746094-24 24v8h-88v-72h32c17.671875 0 32-14.328125 32-32v-80c0-17.671875-14.328125-32-32-32h-80c-17.671875 0-32 14.328125-32 32v80c0 17.671875 14.328125 32 32 32h32v72h-64v-8c0-13.253906-10.746094-24-24-24h-80c-4.417969 0-8-3.582031-8-8v-8h56c17.671875 0 32-14.328125 32-32v-80c0-17.671875-14.328125-32-32-32h-80c-17.671875 0-32 14.328125-32 32v80c0 17.671875 14.328125 32 32 32h8v8c0 13.253906 10.746094 24 24 24h80c4.417969 0 8 3.582031 8 8v8h-88c-13.253906 0-24 10.746094-24 24v192h-32c-4.417969 0-8 3.582031-8 8 .0273438 22.082031 17.917969 39.972656 40 40h400c22.082031-.027344 39.972656-17.917969 40-40 0-4.417969-3.582031-8-8-8h-32v-192c0-13.253906-10.746094-24-24-24h-64v-8c0-4.417969 3.582031-8 8-8zm-8-72v-80c0-8.835938 7.164062-16 16-16h80c8.835938 0 16 7.164062 16 16v80c0 8.835938-7.164062 16-16 16h-80c-8.835938 0-16-7.164062-16-16zm-152 0c-8.835938 0-16-7.164062-16-16v-80c0-8.835938 7.164062-16 16-16h80c8.835938 0 16 7.164062 16 16v80c0 8.835938-7.164062 16-16 16zm-168 24c-8.835938 0-16-7.164062-16-16v-80c0-8.835938 7.164062-16 16-16h80c8.835938 0 16 7.164062 16 16v80c0 8.835938-7.164062 16-16 16h-24v-48h24v-16h-24c0-8.835938 7.164062-16 16-16h8v-16h-8c-17.671875 0-32 14.328125-32 32h-16v16h16v48zm304 80v16h-88v-16zm-120 64v32c0 17.671875 14.328125 32 32 32 0 8.835938-7.164062 16-16 16h-96c-5.617188-.007812-11.140625 1.476562-16 4.296875v-68.296875c0-8.835938 7.164062-16 16-16zm40 48h-8c-8.835938 0-16-7.164062-16-16v-48c0-8.835938 7.164062-16 16-16h96c8.835938 0 16 7.164062 16 16v68.296875c-4.859375-2.820313-10.382812-4.304687-16-4.296875zm-24-112v20.449219c-9.867188 5.671875-15.964844 16.171875-16 27.550781h-48v-48zm208 232h-400c-10.167969-.011719-19.230469-6.417969-22.632812-16h445.265624c-3.402343 9.582031-12.464843 15.988281-22.632812 16zm-24-232c4.417969 0 8 3.582031 8 8v192h-368v-192c0-4.417969 3.582031-8 8-8h88v48h-16c-17.671875 0-32 14.328125-32 32v96c0 4.417969 3.582031 8 8 8s8-3.582031 8-8c0-8.835938 7.164062-16 16-16h96c17.671875 0 32-14.328125 32-32h80c8.835938 0 16 7.164062 16 16 0 4.417969 3.582031 8 8 8s8-3.582031 8-8v-96c-.054688-14.546875-9.914062-27.226562-24-30.863281v-17.136719zm0 0"/><path d="m152 328h16v16h-16zm0 0"/><path d="m184 328h16v16h-16zm0 0"/><path d="m280 296h16v16h-16zm0 0"/><path d="m312 296h16v16h-16zm0 0"/></svg>